Coordinates
version=1
nRows=27
nColumns=38
inDegrees=no

Units are S.I. units (second, meters, Newtons, ...)
If the header above contains a line with 'inDegrees', this indicates whether rotational values are in degrees (yes) or radians (no).

endheader
time	pelvis_tilt	pelvis_list	pelvis_rotation	pelvis_tx	pelvis_ty	pelvis_tz	hip_flexion_r	hip_adduction_r	hip_rotation_r	knee_angle_r	ankle_angle_r	subtalar_angle_r	mtp_angle_r	hip_flexion_l	hip_adduction_l	hip_rotation_l	knee_angle_l	ankle_angle_l	subtalar_angle_l	mtp_angle_l	lumbar_extension	lumbar_bending	lumbar_rotation	arm_flex_r	arm_add_r	arm_rot_r	elbow_flex_r	pro_sup_r	wrist_flex_r	wrist_dev_r	arm_flex_l	arm_add_l	arm_rot_l	elbow_flex_l	pro_sup_l	wrist_flex_l	wrist_dev_l
0.52	-2.6094	1.31589	1.06268	0.718095	1.18624	1.02217	0.435743	0.130262	-0.133927	0.190086	-0.17652	0	0	0.108827	-0.189731	-0.0190883	0.910658	-0.404089	0	0	0.113988	0.198621	-0.250019	0.0285564	-0.241927	0.548142	0.226192	1.42426	0	0	-0.0712424	-0.268957	0.206395	0.762997	1.2977	0	0
0.53	-2.60899	1.31965	1.07222	0.717499	1.1743	1.02356	0.420663	0.127225	-0.142844	0.189576	-0.167167	0	0	0.135648	-0.186344	0.00446413	0.959941	-0.40393	0	0	0.110899	0.192663	-0.251001	0.0341559	-0.241106	0.537963	0.237113	1.42424	0	0	-0.0680382	-0.271991	0.232581	0.749048	1.27608	0	0
0.54	-2.61198	1.32425	1.08308	0.716862	1.16247	1.02527	0.404865	0.124134	-0.147667	0.188478	-0.158786	0	0	0.160325	-0.181173	0.0233396	1.00371	-0.389331	0	0	0.106621	0.185895	-0.248159	0.0388397	-0.240636	0.521942	0.250002	1.42568	0	0	-0.0622348	-0.275898	0.264956	0.733081	1.25315	0	0
0.55	-2.61521	1.32948	1.09186	0.716137	1.15065	1.02734	0.388211	0.121347	-0.150685	0.187893	-0.152557	0	0	0.182484	-0.175691	0.0367478	1.04232	-0.363739	0	0	0.101347	0.179051	-0.242079	0.0428072	-0.240487	0.501874	0.264338	1.42856	0	0	-0.0555963	-0.279144	0.298073	0.716204	1.23365	0	0
0.56	-2.61647	1.33523	1.09672	0.715228	1.13889	1.02967	0.370639	0.119227	-0.155154	0.188552	-0.147205	0	0	0.202392	-0.170913	0.0451098	1.07655	-0.329807	0	0	0.0948597	0.172395	-0.233041	0.0453391	-0.240382	0.474619	0.281203	1.43483	0	0	-0.048281	-0.283309	0.334561	0.700207	1.21428	0	0
0.57	-2.61601	1.34151	1.0978	0.714188	1.12717	1.03219	0.351451	0.117779	-0.156973	0.187968	-0.144216	0	0	0.220315	-0.166777	0.0485011	1.10616	-0.297052	0	0	0.0878739	0.165882	-0.223286	0.0489352	-0.240368	0.453763	0.297447	1.44078	0	0	-0.0430837	-0.285042	0.362554	0.684244	1.20658	0	0
0.58	-2.61746	1.34783	1.09864	0.713125	1.1156	1.03478	0.331933	0.116389	-0.156175	0.185814	-0.142901	0	0	0.237461	-0.162455	0.0479381	1.13139	-0.26187	0	0	0.0801584	0.159444	-0.210393	0.050945	-0.241701	0.431496	0.317269	1.45035	0	0	-0.0373267	-0.285972	0.390384	0.668278	1.20395	0	0
0.59	-2.62271	1.35418	1.10161	0.712128	1.10411	1.03739	0.312738	0.114499	-0.153667	0.182992	-0.142891	0	0	0.254055	-0.157561	0.0444882	1.15153	-0.230366	0	0	0.0735644	0.152335	-0.198339	0.0537454	-0.243191	0.412833	0.337101	1.46014	0	0	-0.0350719	-0.286045	0.410901	0.654253	1.20317	0	0
0.6	-2.62999	1.36073	1.10544	0.711101	1.09259	1.04002	0.293993	0.11234	-0.151335	0.180812	-0.143695	0	0	0.269507	-0.153094	0.0377082	1.16563	-0.201522	0	0	0.06721	0.144905	-0.18646	0.0557796	-0.244912	0.393193	0.359048	1.47094	0	0	-0.0351401	-0.286473	0.428056	0.642559	1.20236	0	0
0.61	-2.63808	1.36771	1.10998	0.710072	1.08105	1.04268	0.275148	0.109933	-0.149412	0.179262	-0.144794	0	0	0.283644	-0.149379	0.0286133	1.17338	-0.175685	0	0	0.060921	0.137187	-0.176016	0.057525	-0.24651	0.374164	0.382244	1.48321	0	0	-0.0376503	-0.286924	0.440727	0.632646	1.20138	0	0
0.62	-2.64732	1.37452	1.11631	0.709091	1.06947	1.04533	0.255951	0.10727	-0.147684	0.176518	-0.1464	0	0	0.297253	-0.146655	0.0179082	1.17458	-0.156027	0	0	0.0558967	0.129262	-0.168258	0.0598711	-0.247781	0.359068	0.404815	1.49288	0	0	-0.0429505	-0.28698	0.44796	0.623828	1.20137	0	0
0.63	-2.65558	1.38103	1.12338	0.708277	1.05795	1.04793	0.23639	0.104313	-0.149556	0.172335	-0.149342	0	0	0.310758	-0.144193	0.00878113	1.17017	-0.138256	0	0	0.051182	0.121755	-0.162361	0.0612191	-0.249624	0.346656	0.429088	1.50515	0	0	-0.0492611	-0.286659	0.451813	0.615816	1.20058	0	0
0.64	-2.65841	1.38818	1.12592	0.707595	1.04661	1.05057	0.215791	0.101542	-0.155228	0.167879	-0.153591	0	0	0.322653	-0.141951	0.0023246	1.16086	-0.12284	0	0	0.0449752	0.115194	-0.157991	0.0630313	-0.251958	0.337521	0.454081	1.52027	0	0	-0.0563065	-0.286211	0.452371	0.608963	1.1984	0	0
0.65	-2.66157	1.39467	1.12836	0.707004	1.03537	1.05309	0.195672	0.0987755	-0.161445	0.162831	-0.158806	0	0	0.334309	-0.140614	-0.005986	1.14655	-0.110034	0	0	0.0392329	0.109262	-0.153998	0.065011	-0.254616	0.329534	0.479173	1.53621	0	0	-0.0643702	-0.285074	0.449717	0.602754	1.19447	0	0
0.66	-2.67167	1.39916	1.1356	0.706372	1.02403	1.05537	0.177648	0.096093	-0.164765	0.157174	-0.164471	0	0	0.346594	-0.140882	-0.0198878	1.12664	-0.0998332	0	0	0.0363466	0.103451	-0.148336	0.0662344	-0.25736	0.321064	0.503643	1.55091	0	0	-0.0735443	-0.28272	0.444561	0.595723	1.18923	0	0
0.67	-2.68305	1.40238	1.14443	0.705884	1.01272	1.05745	0.160917	0.0934374	-0.167925	0.151523	-0.170625	0	0	0.359123	-0.141722	-0.0346627	1.10167	-0.0921487	0	0	0.0347504	0.0982158	-0.143112	0.067151	-0.260428	0.314056	0.527716	1.56614	0	0	-0.0828024	-0.279544	0.437974	0.588176	1.18275	0	0
0.68	-2.69342	1.40465	1.1528	0.705507	1.00143	1.05934	0.145141	0.0910139	-0.172648	0.146084	-0.176821	0	0	0.37134	-0.142724	-0.0486306	1.07166	-0.0871584	0	0	0.0342666	0.0936144	-0.139096	0.0686064	-0.264056	0.311056	0.550921	1.5708	0	0	-0.0925133	-0.276155	0.430735	0.58082	1.17544	0	0
0.69	-2.70328	1.40662	1.15969	0.705077	0.990205	1.06105	0.129832	0.088897	-0.177203	0.140898	-0.183944	0	0	0.382144	-0.144445	-0.0645517	1.03679	-0.0832178	0	0	0.0337354	0.0893135	-0.13439	0.070535	-0.268876	0.312582	0.574343	1.5708	0	0	-0.102402	-0.272819	0.422625	0.574283	1.16709	0	0
0.7	-2.71389	1.40891	1.16552	0.704548	0.979127	1.06261	0.114058	0.0869718	-0.176837	0.134961	-0.191811	0	0	0.390874	-0.147404	-0.0858446	0.996993	-0.0812006	0	0	0.0321663	0.0850306	-0.128473	0.0731329	-0.274154	0.315701	0.598003	1.5708	0	0	-0.112367	-0.269355	0.412617	0.568492	1.15685	0	0
0.71	-2.72751	1.40923	1.17413	0.703962	0.968166	1.06378	0.100954	0.085247	-0.177255	0.129773	-0.198724	0	0	0.400669	-0.151408	-0.110217	0.95303	-0.0816995	0	0	0.0327396	0.0810122	-0.123174	0.0761167	-0.278975	0.319008	0.620336	1.5708	0	0	-0.122946	-0.265885	0.401299	0.563218	1.1452	0	0
0.72	-2.73847	1.41041	1.17995	0.703451	0.957091	1.06479	0.0865286	0.0832783	-0.177893	0.124128	-0.205906	0	0	0.407402	-0.155104	-0.13478	0.904307	-0.0850695	0	0	0.0320501	0.0771154	-0.11804	0.0790647	-0.283848	0.321746	0.642616	1.5708	0	0	-0.133714	-0.262055	0.387953	0.558904	1.13057	0	0
0.73	-2.74536	1.41198	1.18305	0.703136	0.945821	1.06555	0.0710128	0.0817116	-0.180602	0.118222	-0.211749	0	0	0.41203	-0.158275	-0.158352	0.851735	-0.0899776	0	0	0.0310833	0.073615	-0.11476	0.0818685	-0.288161	0.323262	0.663963	1.5708	0	0	-0.145396	-0.258473	0.372994	0.556576	1.1125	0	0
0.74	-2.75042	1.41394	1.1837	0.702843	0.934482	1.06607	0.0546769	0.0803705	-0.182183	0.112045	-0.216452	0	0	0.414288	-0.161357	-0.183391	0.795142	-0.0975307	0	0	0.0294775	0.0703786	-0.111321	0.0849155	-0.292081	0.323965	0.684399	1.5708	0	0	-0.156936	-0.255792	0.360064	0.555263	1.09572	0	0
0.75	-2.75763	1.41536	1.18483	0.702423	0.922996	1.06629	0.0388125	0.079017	-0.181595	0.106025	-0.220191	0	0	0.414861	-0.164295	-0.211271	0.734046	-0.107829	0	0	0.0287992	0.0670089	-0.106343	0.0874082	-0.295685	0.324308	0.703767	1.5708	0	0	-0.167577	-0.253704	0.351641	0.552412	1.08532	0	0
0.76	-2.76902	1.41568	1.18856	0.701889	0.911333	1.06613	0.0242348	0.0774145	-0.179029	0.100324	-0.222627	0	0	0.414355	-0.166169	-0.240799	0.667747	-0.121061	0	0	0.0298226	0.0633678	-0.0997199	0.0889091	-0.299036	0.324115	0.7222	1.5708	0	0	-0.177602	-0.251767	0.345645	0.54834	1.07851	0	0
0.77	-2.77286	1.41563	1.18803	0.701721	0.899879	1.06565	0.00990685	0.0767599	-0.179878	0.0950386	-0.223553	0	0	0.413611	-0.165422	-0.261677	0.598245	-0.134582	0	0	0.0301752	0.0611207	-0.0965032	0.090849	-0.302528	0.323931	0.740431	1.5708	0	0	-0.186435	-0.250044	0.340468	0.544876	1.07185	0	0
0.78	-2.77031	1.41533	1.18275	0.701737	0.888489	1.06485	-0.00454076	0.07714	-0.181743	0.0895644	-0.223909	0	0	0.411861	-0.163117	-0.276015	0.525751	-0.150776	0	0	0.0298098	0.0600566	-0.0946275	0.0924075	-0.30621	0.322896	0.758964	1.5708	0	0	-0.194187	-0.248543	0.336094	0.541859	1.06404	0	0
